# xmcd
#
# Track frame offsets:
# 150
# 11680
# 25219
# 37570
# 49169
# 61689
# 74115
# 84472
# 96279
# 108573
# 118532
#
# Disc length: 1729 seconds
#
#
# Revision: 0
# Processed by: cddbd v1.5.2PL0 Copyright (c) Steve Scherf et al.
# Submitted via: FreeRIP 2.945 
#
DISCID=8906bf0b
DTITLE=Bill Anderson - All The Lonely Women In The World - All The Lonely Women In The World
DYEAR=1900
DGENRE=Country
TTITLE0=All The Lonely Women In The World
TTITLE1=Mornin' After Baby Let Me Down
TTITLE2=Lonely Is Everything
TTITLE3=Here Comes Honey Again
TTITLE4=If I Loved You Too Much
TTITLE5=May You Never Be Alone
TTITLE6=Oh Lonesome Me
TTITLE7=Lonely Together
TTITLE8=I Wonder What The Weather's Like
TTITLE9=Lonely Weekends
TTITLE10=It Was Time For Me To Move On
EXTD=
EXTT0=
EXTT1=
EXTT2=
EXTT3=
EXTT4=
EXTT5=
EXTT6=
EXTT7=
EXTT8=
EXTT9=
EXTT10=
PLAYORDER=
